<svg xmlns="http://www.w3.org/2000/svg" xmlns:xlink="http://www.w3.org/1999/xlink" viewBox="0 0 329.77792 180" height="150" width="329.77792"><defs><linearGradient id="a"><stop offset="0" style="stop-color:#c2c2c2;stop-opacity:1"/><stop offset="1" style="stop-color:#9f9f9f;stop-opacity:1"/></linearGradient><linearGradient gradientTransform="translate(-45.254833 .35355338)" gradientUnits="userSpaceOnUse" y2="108.77648" x2="658.45801" y1="6.5995569" x1="660.06653" id="b" xlink:href="#a"/></defs><g transform="translate(-399.13437 -170.79051)"><rect ry="7.0136137" y="170.79051" x="399.13437" height="406.00739" width="329.77792" style="fill:#eee;fill-opacity:1;fill-rule:nonzero;stroke:none;stroke-width:1.59331;stroke-linecap:round;stroke-linejoin:round;stroke-miterlimit:4;stroke-dasharray:none;stroke-opacity:1"/><g transform="translate(43.778173 191.04163)"><rect style="fill:#9f9f9f;fill-opacity:1;fill-rule:nonzero;stroke:none;stroke-width:2.2995;stroke-linecap:round;stroke-linejoin:round;stroke-miterlimit:4;stroke-dasharray:none;stroke-opacity:1" width="82.489967" height="90.470001" x="398.75827" y="178.74706" ry="8.3970251" transform="rotate(-16.343)"/><g transform="rotate(16.32 538.13563 -184.89727)"><rect ry="4.5961938" y="1.6498091" x="547.18585" height="115.96551" width="107.83378" style="fill:url(#b);fill-opacity:1;fill-rule:nonzero;stroke:#fff;stroke-width:5.398;stroke-linecap:round;stroke-linejoin:round;stroke-miterlimit:4;stroke-dasharray:none"/><g style="stroke:#fff;stroke-width:13.0708;stroke-miterlimit:4;stroke-dasharray:none;stroke-opacity:1"><path style="color:#000;clip-rule:nonzero;display:inline;overflow:visible;visibility:visible;opacity:1;isolation:auto;mix-blend-mode:normal;color-interpolation:sRGB;color-interpolation-filters:linearRGB;solid-color:#000;solid-opacity:1;fill:#ccc;fill-opacity:1;fill-rule:evenodd;stroke:#fff;stroke-width:13.0708;stroke-linecap:round;stroke-linejoin:round;stroke-miterlimit:4;stroke-dasharray:none;stroke-dashoffset:0;stroke-opacity:1;marker:none;color-rendering:auto;image-rendering:auto;shape-rendering:auto;text-rendering:auto;enable-background:accumulate" d="M270 107.36227h491.10556v449.99814H270z" transform="matrix(.17265 0 0 .17265 512.49324 -6.3296456)"/><path style="color:#000;clip-rule:nonzero;display:inline;overflow:visible;visibility:visible;opacity:1;isolation:auto;mix-blend-mode:normal;color-interpolation:sRGB;color-interpolation-filters:linearRGB;solid-color:#000;solid-opacity:1;fill:#fff;fill-opacity:1;fill-rule:evenodd;stroke:#fff;stroke-width:13.0708;stroke-linecap:round;stroke-linejoin:round;stroke-miterlimit:4;stroke-dasharray:none;stroke-dashoffset:0;stroke-opacity:1;marker:none;color-rendering:auto;image-rendering:auto;shape-rendering:auto;text-rendering:auto;enable-background:accumulate" d="M270 107.36227h491.10559v209.99976H270z" transform="matrix(.17265 0 0 .17265 512.49324 -6.3296456)"/><path style="color:#000;clip-rule:nonzero;display:inline;overflow:visible;visibility:visible;opacity:1;isolation:auto;mix-blend-mode:normal;color-interpolation:sRGB;color-interpolation-filters:linearRGB;solid-color:#000;solid-opacity:1;fill:#ccc;fill-opacity:1;fill-rule:evenodd;stroke:#fff;stroke-width:13.0708;stroke-linecap:round;stroke-linejoin:round;stroke-miterlimit:4;stroke-dasharray:none;stroke-dashoffset:0;stroke-opacity:1;marker:none;paint-order:stroke;color-rendering:auto;image-rendering:auto;shape-rendering:auto;text-rendering:auto;enable-background:accumulate" d="m300 317.36255 38.46147-53.53818 60.53097-45.16084 15.88277 18.57394 13.61285-38.68356 8.20133-2.98188 13.3106-28.2093 180 179.99979" transform="matrix(.17265 0 0 .17265 512.49324 -6.3296456)"/><path style="color:#000;clip-rule:nonzero;display:inline;overflow:visible;visibility:visible;opacity:1;isolation:auto;mix-blend-mode:normal;color-interpolation:sRGB;color-interpolation-filters:linearRGB;solid-color:#000;solid-opacity:1;fill:#b3b3b3;fill-opacity:1;fill-rule:evenodd;stroke:#fff;stroke-width:13.0708;stroke-linecap:round;stroke-linejoin:round;stroke-miterlimit:4;stroke-dasharray:none;stroke-dashoffset:0;stroke-opacity:1;marker:none;paint-order:stroke;color-rendering:auto;image-rendering:auto;shape-rendering:auto;text-rendering:auto;enable-background:accumulate" d="M180 60c4.09311 16.474688 7.71219 33.067277 10.85156 49.75 2.38256 12.66097 4.48857 25.37408 6.31641 38.12695l-22.06445-7.16015-46.11133-29.41602 5.32422 46.42578-1.61524 24.78711 10.05274 30.37695 73.18554-11.75585L300 180l-47.80078-77.43359L242.5 117.5l-27.125-22.125Z" transform="matrix(.17265 0 0 .17265 559.1100117 12.206956)"/><path d="m419.99999 347.36252 81.89918-74.42959 18.50574-9.68009 23.6512-44.18894 25.94388-21.70121 179.99999 179.99979" style="color:#000;clip-rule:nonzero;display:inline;overflow:visible;visibility:visible;opacity:1;isolation:auto;mix-blend-mode:normal;color-interpolation:sRGB;color-interpolation-filters:linearRGB;solid-color:#000;solid-opacity:1;fill:#ccc;fill-opacity:1;fill-rule:evenodd;stroke:#fff;stroke-width:13.0708;stroke-linecap:round;stroke-linejoin:round;stroke-miterlimit:4;stroke-dasharray:none;stroke-dashoffset:0;stroke-opacity:1;marker:none;paint-order:stroke;color-rendering:auto;image-rendering:auto;shape-rendering:auto;text-rendering:auto;enable-background:accumulate" transform="matrix(.17265 0 0 .17265 512.49324 -6.3296456)"/><path style="color:#000;clip-rule:nonzero;display:inline;overflow:visible;visibility:visible;opacity:1;isolation:auto;mix-blend-mode:normal;color-interpolation:sRGB;color-interpolation-filters:linearRGB;solid-color:#000;solid-opacity:1;fill:#b3b3b3;fill-opacity:1;fill-rule:evenodd;stroke:#fff;stroke-width:13.0708;stroke-linecap:round;stroke-linejoin:round;stroke-miterlimit:4;stroke-dasharray:none;stroke-dashoffset:0;stroke-opacity:1;marker:none;paint-order:stroke;color-rendering:auto;image-rendering:auto;shape-rendering:auto;text-rendering:auto;enable-background:accumulate" d="m569.99999 197.36269 35.9388 80.91289v60.22076l22.45864 19.46652c6.52453-6.45031 14.14893-11.78526 22.44431-15.70477 14.8245-7.00447 31.33823-9.35959 47.17057-13.6217 6.42776-1.73037 12.90672-3.85419 18.21343-7.87277 1.35174-1.02362 2.61592-2.16281 3.77424-3.40107h-30l-40.52149-40.55006-29.85645-48.91972-10.25307 8.83886z" transform="matrix(.17265 0 0 .17265 512.49324 -6.3296456)"/><path style="color:#000;clip-rule:nonzero;display:inline;overflow:visible;visibility:visible;opacity:1;isolation:auto;mix-blend-mode:normal;color-interpolation:sRGB;color-interpolation-filters:linearRGB;solid-color:#000;solid-opacity:1;fill:#fff;fill-opacity:1;fill-rule:evenodd;stroke:#fff;stroke-width:13.0708;stroke-linecap:round;stroke-linejoin:round;stroke-miterlimit:4;stroke-dasharray:none;stroke-dashoffset:0;stroke-opacity:1;marker:none;paint-order:stroke;color-rendering:auto;image-rendering:auto;shape-rendering:auto;text-rendering:auto;enable-background:accumulate" d="M419.99999 557.36227c-.41699-9.60089-8.81759-17.60878 17.1252-30.66806 31.8318-16.02389 125.895-35.88836 152.1537-59.98434 19.42709-17.82687-70.4154-37.66945-55.0191-59.07323 6.981-9.70528 59.037-19.96947 82.1463-30.27386 21.90569-9.76799 15.14129-19.80328 31.4046-29.97507 15.7092-9.82558 68.3499-19.77358 72.18929-30.02516-10.41359 10.52188-68.83379 20.40327-89.99999 30.00026-22.3377 10.128-21.4689 19.93018-49.4313 29.48367-30.1245 10.29239-89.142 20.55268-102.7077 30.51626-28.4133 20.86858 46.863 42.59995 16.2024 59.99993C452.54309 490.92554 344.7219 510.65712 300 527.3626c-30.9039 11.54369-28.4079 17.74799-30 29.99967" transform="matrix(.17265 0 0 .17265 512.49324 -6.3296456)"/></g></g></g></g></svg>